<?xml version="1.0" encoding="UTF-8" standalone="no"?>
<!-- Created with Inkscape (http://www.inkscape.org/) -->

<svg
   xmlns:dc="http://purl.org/dc/elements/1.1/"
   xmlns:cc="http://creativecommons.org/ns#"
   xmlns:rdf="http://www.w3.org/1999/02/22-rdf-syntax-ns#"
   xmlns:svg="http://www.w3.org/2000/svg"
   xmlns="http://www.w3.org/2000/svg"
   xmlns:xlink="http://www.w3.org/1999/xlink"
   xmlns:sodipodi="http://sodipodi.sourceforge.net/DTD/sodipodi-0.dtd"
   xmlns:inkscape="http://www.inkscape.org/namespaces/inkscape"
   width="303.50964"
   height="128.89301"
   viewBox="0 0 303.50965 128.893"
   id="svg2"
   version="1.1"
   inkscape:version="0.91 r13725"
   sodipodi:docname="bannerlogo.svg">
  <defs
     id="defs4">
    <linearGradient
       x1="19.437294"
       y1="4.736424"
       x2="19.437294"
       y2="88.015701"
       id="gradient15"
       gradientTransform="matrix(2.6732337,0,0,2.7908216,-23.810769,800.75191)"
       gradientUnits="userSpaceOnUse">
      <stop
         offset="0"
         stop-color="#FF7917"
         stop-opacity="1"
         id="stop58" />
      <stop
         offset="1"
         stop-color="#FF2EA3"
         stop-opacity="1"
         id="stop60" />
    </linearGradient>
    <linearGradient
       x1="0.5594812"
       y1="18.128807"
       x2="0.5594812"
       y2="77.874718"
       id="gradient17"
       gradientTransform="matrix(2.7994887,0,0,2.7498118,-27.477139,794.03704)"
       gradientUnits="userSpaceOnUse">
      <stop
         offset="0"
         stop-color="#FFE633"
         stop-opacity="1"
         id="stop88" />
      <stop
         offset="1"
         stop-color="#FF7917"
         stop-opacity="1"
         id="stop90" />
    </linearGradient>
    <linearGradient
       x1="25.744411"
       y1="1.2927718"
       x2="25.744411"
       y2="49.255547"
       id="gradient16"
       gradientTransform="matrix(3.2209774,0,0,2.3207312,-26.694164,794.70928)"
       gradientUnits="userSpaceOnUse">
      <stop
         offset="0"
         stop-color="#D5BFFF"
         stop-opacity="1"
         id="stop73" />
      <stop
         offset="1"
         stop-color="#BCAAFF"
         stop-opacity="1"
         id="stop75" />
    </linearGradient>
    <linearGradient
       x1="23.899389"
       y1="7.0403275"
       x2="23.899389"
       y2="14.495927"
       id="gradient19"
       gradientTransform="matrix(2.3943173,0,0,3.115927,-27.232024,794.19866)"
       gradientUnits="userSpaceOnUse">
      <stop
         offset="0"
         stop-color="#FFE633"
         stop-opacity="1"
         id="stop118" />
      <stop
         offset="1"
         stop-color="#FFB125"
         stop-opacity="1"
         id="stop120" />
    </linearGradient>
    <linearGradient
       x1="4.9563918"
       y1="17.914171"
       x2="4.9563918"
       y2="26.967745"
       id="gradient18"
       gradientTransform="matrix(4.0551859,0,0,1.8397474,-22.952854,799.40166)"
       gradientUnits="userSpaceOnUse">
      <stop
         offset="0"
         stop-color="#D5BFFF"
         stop-opacity="1"
         id="stop103" />
      <stop
         offset="1"
         stop-color="#BCAAFF"
         stop-opacity="1"
         id="stop105" />
    </linearGradient>
    <linearGradient
       inkscape:collect="always"
       xlink:href="#gradient15"
       id="linearGradient4793"
       x1="135.22458"
       y1="960.65393"
       x2="277.01892"
       y2="960.65393"
       gradientUnits="userSpaceOnUse"
       gradientTransform="translate(-7.7596684,-28.867215)" />
    <linearGradient
       inkscape:collect="always"
       xlink:href="#gradient15"
       id="linearGradient4795"
       gradientUnits="userSpaceOnUse"
       gradientTransform="matrix(2.6732337,0,0,2.7908216,-23.810769,800.75191)"
       x1="19.437294"
       y1="4.736424"
       x2="19.437294"
       y2="88.015701" />
  </defs>
  <sodipodi:namedview
     id="base"
     pagecolor="#ffffff"
     bordercolor="#666666"
     borderopacity="1.0"
     inkscape:pageopacity="0.0"
     inkscape:pageshadow="2"
     inkscape:zoom="1.4"
     inkscape:cx="139.49816"
     inkscape:cy="64.085287"
     inkscape:document-units="px"
     inkscape:current-layer="layer1"
     showgrid="false"
     units="px"
     fit-margin-top="0"
     fit-margin-left="0"
     fit-margin-right="0"
     fit-margin-bottom="0"
     inkscape:window-width="1536"
     inkscape:window-height="801"
     inkscape:window-x="-8"
     inkscape:window-y="-8"
     inkscape:window-maximized="1">
    <inkscape:grid
       type="xygrid"
       id="grid4136"
       originx="25.910879"
       originy="-112.25978" />
  </sodipodi:namedview>
  <metadata
     id="metadata7">
    <rdf:RDF>
      <cc:Work
         rdf:about="">
        <dc:format>image/svg+xml</dc:format>
        <dc:type
           rdf:resource="http://purl.org/dc/dcmitype/StillImage" />
        <dc:title></dc:title>
      </cc:Work>
    </rdf:RDF>
  </metadata>
  <g
     inkscape:label="Layer 1"
     inkscape:groupmode="layer"
     id="layer1"
     transform="translate(25.910878,-811.20937)">
    <g
       id="g4768"
       transform="matrix(0.56583014,0,0,0.51831177,-11.24972,397.74717)">
      <path
         inkscape:connector-curvature="0"
         style="fill:url(#linearGradient4795);filter:url(#filter13)"
         id="path62"
         d="m 244.68535,893.07305 q -7.51134,-22.26086 -23.08029,-39.87836 -17.34436,-19.66604 -41.24406,-29.90878 -23.08029,-9.83302 -48.34569,-9.28674 -20.34889,0.27314 -39.19552,7.64791 -19.52947,7.37476 -35.37156,21.44145 -10.92558,9.69645 -18.84663,21.30488 2.04855,3.00453 7.92105,2.45825 4.77994,-0.54628 13.79354,-3.68738 5.46279,-2.04855 18.43692,-6.96506 12.29128,-4.64337 21.71459,-7.23819 27.45052,-7.51134 48.34569,-3.41425 27.31395,5.18965 46.29714,30.31849 10.92558,12.42784 18.30035,30.59162 7.37476,18.02721 9.42331,37.14697 2.04855,20.07577 -2.32169,36.60067 -4.77994,17.8907 -16.79807,28.26997 -17.07122,15.2957 -46.29715,13.7935 -26.35796,-1.5023 -52.44278,-15.7055 l -1.50227,-0.8194 q -2.18511,-1.2292 -5.59936,-3.2777 -13.93011,-8.74047 -23.21685,-19.39287 -7.37477,-8.1942 -27.9968,-9.0136 -7.64791,-0.1366 -13.38384,0.8194 -5.73593,0.956 -5.05308,2.3217 7.2382,16.3884 19.25634,30.04527 15.56895,17.6175 36.73726,27.8602 20.48546,9.6965 43.15604,11.0622 22.80715,1.3657 44.2486,-5.7359 22.26086,-7.5114 39.87836,-23.2169 17.75407,-15.7055 27.86023,-36.73717 9.69645,-20.4855 11.19872,-43.15608 1.3657,-22.67058 -5.8725,-44.2486 z" />
      <path
         inkscape:connector-curvature="0"
         style="fill:url(#gradient16);filter:url(#filter13)"
         id="path77"
         d="m 204.01007,889.21555 q 4.51557,9.42331 6.70493,19.80261 -4.2419,-27.31395 -18.74642,-51.8965 -13.1362,-22.26087 -32.15629,-37.96639 -18.06225,-15.02267 -35.98767,-19.66604 -18.33592,-4.77995 -30.377432,3.27767 -20.114779,13.5204 -30.787929,55.72046 -5.19974,21.16831 -6.431259,39.60522 6.841766,-19.80261 22.57782,-33.8693 12.315164,-10.789 27.64073,-15.97866 14.77819,-4.91651 30.37741,-3.96052 15.73607,0.95599 29.69325,7.64791 14.64138,6.96505 25.45137,19.11976 7.11542,8.05762 12.04149,18.16378 z" />
      <path
         inkscape:connector-curvature="0"
         style="fill:url(#gradient19);filter:url(#filter13)"
         id="path122"
         d="m 42.281976,824.51715 q -3.41425,-4.0971 -6.96506,-6.55535 -3.55081,-2.59483 -4.77994,-1.50227 -1.09256,0.95599 0,5.32622 0.95599,4.23366 3.41424,8.74047 6.28221,11.47185 11.745,8.05761 5.59936,-3.41424 -3.41424,-14.06668 z" />
      <path
         inkscape:connector-curvature="0"
         style="fill:url(#gradient18);filter:url(#filter13)"
         id="path107"
         d="m 17.062081,836.54863 q -17.3443584,-9.0136 -19.6660434,1.3657 -2.3216856,10.3793 16.9346484,11.06215 9.559882,0.27314 19.529474,-1.3657 -8.194185,-6.55535 -16.798079,-11.06215 z" />
      <path
         inkscape:connector-curvature="0"
         style="fill:url(#gradient17);filter:url(#filter13)"
         id="path92"
         d="m 141.34712,845.39706 q -17.82871,-3.08725 -45.394666,0.14017 -27.840235,3.36787 -54.034736,11.64719 -28.663099,9.26178 -46.0803872,21.7509 -19.8858768,14.17328 -21.5316038,30.3109 -1.782866,16.27815 11.10866,33.25807 11.9315306,15.71647 34.697435,29.88975 21.531608,13.61161 48.823262,23.154 25.371635,8.98206 50.194686,12.62966 -13.44009,-2.3877 -24.548759,-8.1389 Q 81.552326,993.30307 71.403671,981.37519 60.569295,968.88564 55.357823,953.16916 50.42064,938.0135 51.38065,922.01629 q 0.96001,-16.13795 7.680069,-30.45132 6.994336,-15.01514 19.200154,-26.10116 13.714396,-12.3486 36.343167,-17.54073 16.59443,-3.64861 26.74308,-2.52602 z" />
    </g>
    <flowRoot
       xml:space="preserve"
       id="flowRoot4775"
       style="font-style:normal;font-variant:normal;font-weight:normal;font-stretch:normal;font-size:35px;line-height:125%;font-family:TimeBurner;-inkscape-font-specification:TimeBurner;letter-spacing:0px;word-spacing:0px;fill:#000000;fill-opacity:1;stroke:none;stroke-width:1px;stroke-linecap:butt;stroke-linejoin:miter;stroke-opacity:1"
       transform="translate(-25.910882,797.70946)"><flowRegion
         id="flowRegion4777"><rect
           id="rect4779"
           width="185.71428"
           height="55.714287"
           x="143.57143"
           y="152.96423"
           style="font-style:normal;font-variant:normal;font-weight:normal;font-stretch:normal;font-family:TimeBurner;-inkscape-font-specification:TimeBurner" /></flowRegion><flowPara
         id="flowPara4781"></flowPara></flowRoot>    <text
       xml:space="preserve"
       style="font-style:normal;font-weight:normal;font-size:44.35599899px;line-height:125%;font-family:sans-serif;letter-spacing:0px;word-spacing:0px;fill:url(#linearGradient4793);fill-opacity:1;stroke:none;stroke-width:1px;stroke-linecap:butt;stroke-linejoin:miter;stroke-opacity:1"
       x="127.598"
       y="943.27484"
       id="text4783"
       sodipodi:linespacing="125%"
       transform="scale(1.0309719,0.96995855)"><tspan
         sodipodi:role="line"
         id="tspan4785"
         x="127.598"
         y="943.27484"
         style="font-style:normal;font-variant:normal;font-weight:normal;font-stretch:normal;font-family:TimeBurner;-inkscape-font-specification:TimeBurner;fill:url(#linearGradient4793);fill-opacity:1">stupefy</tspan></text>
  </g>
</svg>
