<?xml version="1.0" encoding="UTF-8" standalone="no"?>
<!-- Created with Inkscape (http://www.inkscape.org/) -->

<svg
   xmlns:dc="http://purl.org/dc/elements/1.1/"
   xmlns:cc="http://creativecommons.org/ns#"
   xmlns:rdf="http://www.w3.org/1999/02/22-rdf-syntax-ns#"
   xmlns:svg="http://www.w3.org/2000/svg"
   xmlns="http://www.w3.org/2000/svg"
   xmlns:xlink="http://www.w3.org/1999/xlink"
   xmlns:sodipodi="http://sodipodi.sourceforge.net/DTD/sodipodi-0.dtd"
   xmlns:inkscape="http://www.inkscape.org/namespaces/inkscape"
   width="140"
   height="112"
   viewBox="0 0 140 112"
   id="svg2"
   version="1.1"
   inkscape:version="0.91 r13725"
   sodipodi:docname="logo.svg"
   inkscape:export-filename="C:\xampp\htdocs\stupefy\logotext.png"
   inkscape:export-xdpi="90"
   inkscape:export-ydpi="90">
  <defs
     id="defs4">
    <linearGradient
       inkscape:collect="always"
       id="linearGradient4345">
      <stop
         style="stop-color:#00aa44;stop-opacity:1"
         offset="0"
         id="stop4347" />
      <stop
         style="stop-color:#00aa88;stop-opacity:1"
         offset="1"
         id="stop4349" />
    </linearGradient>
    <linearGradient
       inkscape:collect="always"
       xlink:href="#linearGradient4345"
       id="linearGradient4351"
       x1="21.428572"
       y1="75.714317"
       x2="78.571426"
       y2="40.000027"
       gradientUnits="userSpaceOnUse" />
  </defs>
  <sodipodi:namedview
     id="base"
     pagecolor="#ffffff"
     bordercolor="#666666"
     borderopacity="1.0"
     inkscape:pageopacity="0.0"
     inkscape:pageshadow="2"
     inkscape:zoom="1.4"
     inkscape:cx="100.44983"
     inkscape:cy="-56.99199"
     inkscape:document-units="px"
     inkscape:current-layer="layer1"
     showgrid="true"
     units="px"
     inkscape:window-width="1536"
     inkscape:window-height="801"
     inkscape:window-x="-8"
     inkscape:window-y="-8"
     inkscape:window-maximized="1"
     fit-margin-top="0"
     fit-margin-left="0"
     fit-margin-right="0"
     fit-margin-bottom="0">
    <inkscape:grid
       type="xygrid"
       id="grid4136"
       originx="-50"
       originy="-50.00004" />
  </sodipodi:namedview>
  <metadata
     id="metadata7">
    <rdf:RDF>
      <cc:Work
         rdf:about="">
        <dc:format>image/svg+xml</dc:format>
        <dc:type
           rdf:resource="http://purl.org/dc/dcmitype/StillImage" />
        <dc:title></dc:title>
      </cc:Work>
    </rdf:RDF>
  </metadata>
  <g
     inkscape:label="Layer 1"
     inkscape:groupmode="layer"
     id="layer1"
     transform="translate(-50,-890.3621)">
    <g
       transform="matrix(1.4,0,0,1.4,50,876.3621)"
       id="g3"
       style="fill-opacity:1;fill:url(#linearGradient4351)">
      <g
         id="g5"
         style="fill-opacity:1;fill:url(#linearGradient4351)">
        <path
           inkscape:connector-curvature="0"
           style="fill:url(#linearGradient4351);fill-opacity:1"
           d="m 50,40 c -8.285,0 -15,6.718 -15,15 0,8.285 6.715,15 15,15 8.283,0 15,-6.715 15,-15 C 65,46.718 58.283,40 50,40 Z M 90,25 78,25 c -1.65,0 -3.428,-1.28 -3.949,-2.846 L 70.949,12.845 C 70.426,11.28 68.65,10 67,10 l -34,0 c -1.65,0 -3.428,1.28 -3.949,2.846 l -3.102,9.309 C 25.426,23.72 23.65,25 22,25 L 10,25 C 4.5,25 0,29.5 0,35 l 0,45 c 0,5.5 4.5,10 10,10 l 80,0 c 5.5,0 10,-4.5 10,-10 l 0,-45 C 100,29.5 95.5,25 90,25 Z M 50,80 C 36.193,80 25,68.807 25,55 25,41.194 36.193,30 50,30 63.805,30 75,41.194 75,55 75,68.807 63.805,80 50,80 Z M 86.5,41.993 c -1.932,0 -3.5,-1.566 -3.5,-3.5 0,-1.932 1.568,-3.5 3.5,-3.5 1.934,0 3.5,1.568 3.5,3.5 0,1.934 -1.567,3.5 -3.5,3.5 z"
           id="path7" />
      </g>
    </g>
  </g>
</svg>
